<?xml version="1.0" standalone="no"?>
<!DOCTYPE svg PUBLIC "-//W3C//DTD SVG 20010904//EN"
 "http://www.w3.org/TR/2001/REC-SVG-20010904/DTD/svg10.dtd">
<svg version="1.0" xmlns="http://www.w3.org/2000/svg"
 width="312.000000pt" height="312.000000pt" viewBox="0 0 312.000000 312.000000"
 preserveAspectRatio="xMidYMid meet">
<metadata>
Created by potrace 1.14, written by Peter Selinger 2001-2017
</metadata>
<g transform="translate(0.000000,312.000000) scale(0.100000,-0.100000)"
fill="#000000" stroke="none">
<path d="M1377 3075 c-137 -26 -269 -78 -367 -145 -110 -75 -244 -234 -285
-336 -11 -28 -26 -45 -48 -55 -61 -27 -70 -61 -74 -258 -2 -97 -8 -193 -14
-214 -8 -31 -7 -45 8 -75 16 -33 24 -38 72 -47 30 -6 58 -17 62 -25 11 -23 32
-207 25 -219 -5 -8 -13 -8 -26 -1 -51 28 -120 -4 -146 -66 -18 -43 -18 -164 0
-230 16 -59 66 -156 101 -197 14 -15 49 -39 79 -52 53 -23 55 -26 61 -72 15
-105 55 -263 79 -312 27 -52 84 -117 145 -163 l33 -25 -66 -37 c-45 -25 -79
-54 -104 -87 -38 -51 -41 -53 -162 -78 -56 -12 -131 -48 -136 -66 -3 -9 243
-135 264 -135 5 0 30 -9 54 -20 45 -20 298 -90 298 -83 0 2 -22 41 -50 87 -27
45 -61 108 -75 139 l-25 58 30 5 c43 9 44 8 53 -32 28 -138 242 -218 492 -185
199 27 305 96 305 201 0 25 3 31 16 26 9 -3 21 -6 27 -6 38 -1 39 -17 3 -95
-20 -43 -49 -100 -66 -127 -16 -26 -30 -52 -30 -57 0 -10 101 16 236 59 73 24
332 144 351 164 14 13 -83 58 -166 77 -92 21 -97 24 -143 74 -33 36 -66 61
-103 76 -30 12 -55 25 -55 29 0 3 30 31 68 61 110 91 159 199 192 420 l13 87
37 11 c69 21 156 136 184 246 20 74 21 204 2 249 -25 59 -81 81 -141 54 -14
-6 -27 -9 -30 -6 -9 9 28 253 39 260 6 4 23 8 38 8 17 0 34 10 48 28 19 23 21
35 15 77 -3 28 -9 131 -13 230 -8 197 -14 220 -70 249 -19 10 -41 41 -70 100
-98 197 -303 353 -550 417 -104 27 -309 34 -415 14z m628 -1070 c151 -18 306
-45 319 -56 5 -4 1 -66 -8 -142 -9 -74 -16 -198 -16 -276 0 -104 -7 -185 -25
-299 -59 -368 -86 -454 -166 -532 -61 -59 -250 -183 -339 -222 -73 -32 -79
-33 -210 -33 -129 0 -138 1 -207 31 -77 34 -250 143 -323 204 -89 74 -129 177
-165 415 -9 61 -23 148 -31 194 -8 46 -14 126 -14 178 0 52 -9 175 -20 274
-11 99 -18 184 -15 188 9 15 66 21 85 9 10 -7 23 -9 27 -5 4 5 2 12 -5 16 -21
13 292 61 488 75 111 8 499 -4 625 -19z m-1257 -378 c14 -16 28 -77 18 -77 -4
0 -20 16 -37 35 -20 22 -40 35 -55 35 -24 0 -24 -1 8 -29 l32 -28 -17 -36
c-21 -43 -22 -77 -3 -102 13 -18 14 -18 9 7 -5 29 13 98 27 98 18 0 38 -71 42
-152 2 -49 1 -88 -2 -88 -4 0 -20 10 -35 22 l-27 21 13 -22 c8 -12 26 -27 41
-33 19 -9 28 -22 32 -47 3 -19 4 -37 2 -39 -11 -10 -69 34 -96 73 -47 68 -69
125 -80 206 -18 136 22 219 90 184 15 -8 32 -20 38 -28z m1740 -8 c9 -17 12
-52 9 -115 -3 -76 -9 -103 -34 -157 -34 -71 -92 -142 -123 -150 -19 -5 -20 -2
-14 31 4 21 10 38 15 40 19 7 60 45 55 50 -3 3 -15 -3 -26 -13 -11 -10 -22
-16 -24 -14 -1 2 0 50 4 107 4 75 10 107 23 119 15 15 17 15 27 -11 5 -15 10
-43 10 -62 0 -21 4 -33 10 -29 15 9 12 86 -5 118 -14 27 -13 30 17 58 31 28
32 29 9 29 -14 0 -37 -14 -57 -36 l-34 -35 0 28 c0 29 37 74 70 86 20 6 52
-14 68 -44z m-1142 -1196 c56 -27 66 -28 214 -28 148 0 158 1 214 28 70 32 76
33 76 7 0 -13 13 -29 36 -42 32 -19 35 -24 30 -52 -10 -49 -32 -73 -98 -105
-119 -57 -348 -67 -472 -20 -72 26 -134 82 -142 126 -5 28 -3 33 25 47 17 9
33 27 37 41 3 14 10 25 14 25 4 0 34 -12 66 -27z m-443 -148 c-3 -9 -8 -14
-10 -11 -3 3 -2 9 2 15 9 16 15 13 8 -4z"/>
<path d="M2215 1940 c-3 -5 3 -10 14 -10 12 0 21 5 21 10 0 6 -6 10 -14 10 -8
0 -18 -4 -21 -10z"/>
<path d="M2177 1873 c-14 -13 -6 -33 13 -33 13 0 20 7 20 20 0 19 -20 27 -33
13z"/>
<path d="M1077 1810 c-44 -30 -111 -99 -103 -108 2 -2 43 17 90 42 48 25 96
46 107 46 12 0 66 -9 121 -20 107 -22 129 -18 109 18 -16 30 -64 43 -176 49
-100 5 -100 5 -148 -27z"/>
<path d="M1787 1826 c-56 -12 -77 -26 -77 -53 0 -22 18 -23 116 -2 55 11 113
18 131 15 18 -2 64 -23 103 -46 39 -23 74 -39 78 -36 7 8 -52 70 -102 107 -35
26 -46 29 -115 28 -42 0 -102 -6 -134 -13z"/>
<path d="M1116 1634 c-46 -17 -136 -72 -136 -84 0 -15 65 -63 120 -89 74 -34
167 -35 230 -2 25 13 55 28 67 35 30 15 29 26 -8 72 -58 75 -175 104 -273 68z
m111 -36 c-2 -8 -17 -12 -36 -10 -23 1 -31 -2 -31 -14 0 -33 20 -54 53 -54 41
0 57 15 57 53 0 27 2 29 28 22 15 -3 42 -21 61 -40 l34 -33 -39 -26 c-97 -64
-233 -50 -307 31 -16 19 -16 21 3 38 37 34 187 61 177 33z"/>
<path d="M1805 1632 c-22 -10 -55 -35 -72 -55 -18 -21 -35 -37 -38 -37 -3 0
-5 15 -5 33 -1 25 -3 29 -10 16 -15 -26 -33 -216 -24 -257 l8 -37 7 50 c4 28
8 73 8 101 1 28 4 54 7 57 4 4 36 -10 72 -30 57 -32 73 -36 136 -37 58 0 82 5
127 26 30 15 68 41 84 58 l30 32 -25 20 c-87 70 -225 98 -305 60z m94 -38 c-8
-10 -21 -13 -36 -9 -19 4 -23 1 -23 -18 0 -32 18 -47 56 -47 40 0 58 21 51 59
l-6 29 41 -9 c47 -11 98 -36 98 -48 0 -20 -43 -60 -82 -76 -67 -27 -146 -23
-212 9 -31 15 -56 33 -56 40 0 33 91 84 154 85 25 1 27 -1 15 -15z"/>
<path d="M1397 1163 c-13 -12 -7 -71 8 -83 8 -7 25 -10 37 -7 15 4 33 -3 59
-23 46 -37 69 -38 110 -3 19 16 44 27 63 28 38 0 65 44 48 79 -10 19 -11 19
-11 -9 -1 -40 -17 -55 -51 -49 -19 4 -35 -1 -57 -20 -17 -14 -39 -26 -48 -26
-9 0 -31 12 -48 26 -23 19 -38 24 -59 20 -32 -6 -54 21 -43 54 7 20 3 25 -8
13z"/>
<path d="M1215 906 c-27 -20 -12 -46 27 -46 18 -1 60 -7 93 -15 104 -25 257
-29 375 -10 58 10 123 20 145 22 47 6 58 14 50 36 -9 23 -36 30 -54 13 -26
-23 -174 -46 -296 -46 -120 0 -263 22 -299 46 -19 12 -25 12 -41 0z"/>
<path d="M1477 738 c6 -10 145 -10 160 0 7 4 -27 8 -76 7 -49 0 -87 -3 -84 -7z"/>
</g>
</svg>
